Coordinates
version=1
nRows=7
nColumns=40
inDegrees=yes

Units are S.I. units (second, meters, Newtons, ...)
Angles are in degrees.

endheader
time	pelvis_tilt	pelvis_list	pelvis_rotation	pelvis_tx	pelvis_ty	pelvis_tz	hip_flexion_r	hip_adduction_r	hip_rotation_r	knee_angle_r	knee_angle_r_beta	ankle_angle_r	subtalar_angle_r	mtp_angle_r	hip_flexion_l	hip_adduction_l	hip_rotation_l	knee_angle_l	knee_angle_l_beta	ankle_angle_l	subtalar_angle_l	mtp_angle_l	lumbar_extension	lumbar_bending	lumbar_rotation	arm_flex_r	arm_add_r	arm_rot_r	elbow_flex_r	pro_sup_r	wrist_flex_r	wrist_dev_r	arm_flex_l	arm_add_l	arm_rot_l	elbow_flex_l	pro_sup_l	wrist_flex_l	wrist_dev_l
      5.98000000	     -1.92003259	     -5.33165612	      1.20108380	      1.06407939	      0.93317365	      0.41071501	     26.15840332	     -6.71358713	     -5.72309117	     56.46077227	     56.46077227	      2.81987084	    -11.33661531	      0.50206862	     14.32384723	     -5.57737865	     -6.82253846	     24.09453834	     24.09453834	     13.98649931	    -10.95152078	     -0.12479903	    -11.51259559	      5.47110152	      1.26427372	      7.08463947	    -12.96328809	     -6.88296488	     28.89208328	     45.66249371	      0.00000000	      0.00000000	     13.58616335	    -17.60619422	      8.02770654	     48.40592300	     46.13562274	      0.00000000	      0.00000000
      5.99400000	     -2.12435372	     -5.44365831	      0.63563103	      1.06270847	      0.93381913	      0.41065618	     26.77027046	     -6.47860306	     -5.82978669	     53.55657360	     53.55657360	      2.98751338	    -10.80964700	      0.61603330	     13.81327259	     -5.71563455	     -7.28686895	     23.52111045	     23.52111045	     14.11948968	    -10.90310642	     -0.07273792	    -11.44437589	      5.55217690	      0.81888503	      5.75504093	    -13.26972908	     -6.94148055	     28.34399175	     45.68364447	      0.00000000	      0.00000000	     13.91517217	    -17.92243428	      7.93176347	     48.59197929	     46.15009501	      0.00000000	      0.00000000
      6.00800000	     -2.17545981	     -5.55131270	      0.08411732	      1.06145814	      0.93466023	      0.41058986	     26.97081587	     -6.18868459	     -5.98589166	     50.24243956	     50.24243956	      3.01494187	    -10.23072461	      0.56026225	     13.07495854	     -5.84249259	     -7.78549444	     22.84234146	     22.84234146	     14.21224348	    -10.77449266	     -0.06473889	    -11.58152281	      5.63350688	      0.67994381	      4.39909789	    -13.74016368	     -7.06392826	     27.71806239	     45.71550586	      0.00000000	      0.00000000	     14.39838410	    -18.04252839	      7.86611605	     49.05430223	     46.16786462	      0.00000000	      0.00000000
      6.02200000	     -2.22036906	     -5.60264513	     -0.49083465	      1.06022329	      0.93532422	      0.41065025	     27.02503831	     -5.91119548	     -6.16490642	     46.67305738	     46.67305738	      2.85141463	     -9.58762715	      0.07931375	     12.34135051	     -5.91960259	     -8.39229392	     22.19747665	     22.19747665	     14.29116010	    -10.62834940	     -0.25631099	    -11.76388016	      5.63874379	      0.72230691	      2.94381495	    -14.17329371	     -7.35761163	     27.10723180	     45.76421756	      0.00000000	      0.00000000	     14.94793020	    -18.24784626	      7.85421582	     49.71870775	     46.18662339	      0.00000000	      0.00000000
      6.03600000	     -2.47682810	     -5.69031564	     -0.99579520	      1.05884958	      0.93554936	      0.41075543	     27.18928193	     -5.58391095	     -6.47279855	     42.90876354	     42.90876354	      2.70203584	     -8.76427023	      0.14997509	     11.94904642	     -6.02434514	     -8.81443322	     21.69746454	     21.69746454	     14.37996368	    -10.54516379	     -0.37634182	    -11.65997529	      5.72532157	      0.37802692	      1.67451320	    -14.54347247	     -7.59632080	     26.68739263	     45.79655744	      0.00000000	      0.00000000	     15.23796710	    -18.51219970	      7.83369148	     50.11436272	     46.19765131	      0.00000000	      0.00000000
      6.05000000	     -2.59948181	     -5.68205687	     -1.52934336	      1.05763578	      0.93575068	      0.41105325	     26.99362527	     -5.31626830	     -6.87004877	     38.74877941	     38.74877941	      1.81598194	     -7.93041910	     -2.13811308	     11.33581848	     -6.07813831	     -9.54097414	     21.07043745	     21.07043745	     14.17614236	    -10.22617620	     -1.44047130	    -11.78170557	      5.65604193	      0.52560581	      0.07125237	    -14.79978722	     -9.18520097	     26.73236958	     45.94364354	      0.00000000	      0.00000000	     15.60564707	    -18.85312889	      8.34770759	     51.39245895	     46.19513642	      0.00000000	      0.00000000
      6.06400000	     -2.94113240	     -5.68582918	     -2.00482671	      1.05626646	      0.93552528	      0.41149617	     27.04374065	     -4.96052851	     -7.25253518	     34.66479368	     34.66479368	      1.68874516	     -6.81697276	     -1.60809737	     11.12371479	     -6.10882090	     -9.93298287	     20.70687933	     20.70687933	     14.30510407	    -10.24879391	     -1.49539838	    -11.60220201	      5.62863498	      0.13573220	     -0.97722674	    -15.00928452	     -9.38640850	     26.43009561	     45.96762767	      0.00000000	      0.00000000	     15.85764826	    -19.17353998	      8.28312993	     51.59511296	     46.20702962	      0.00000000	      0.00000000
